<svg width="107" height="113" viewBox="0 0 107 113" fill="none" xmlns="http://www.w3.org/2000/svg">
<path d="M100.802 89.8326L83.7966 71.8736C82.8939 70.9149 81.8201 70.1549 80.6374 69.6375C79.4546 69.1201 78.1864 68.8556 76.9062 68.8594C76.2407 68.8594 75.5769 68.9308 74.925 69.0724C70.7927 63.2198 68.5561 56.1168 68.5469 48.8163C68.5469 42.0641 67.2875 35.378 64.8408 29.1397C62.394 22.9015 58.8077 17.2333 54.2866 12.4587C51.6128 9.61948 48.4322 7.36851 44.929 5.83611C41.4259 4.3037 37.6697 3.5203 33.8779 3.53124C17.9632 3.53124 5.01563 17.2049 5.01563 34.012C5.0142 41.4186 7.56783 48.5721 12.1989 54.1343L14.7103 51.8032C10.3363 46.5473 8.06937 39.7008 8.3891 32.7116C8.70883 25.7225 11.5901 19.1386 16.4236 14.3525C21.257 9.56647 27.6637 6.95341 34.2886 7.066C40.9136 7.17859 47.2373 10.008 51.9224 14.9559C56.133 19.4025 59.4729 24.6814 61.7516 30.4912C64.0304 36.3009 65.2032 42.5279 65.2031 48.8163C65.2095 52.4313 64.1984 55.9668 62.2981 58.9735C60.3978 61.9803 57.6941 64.3228 54.5305 65.7034C54.3059 65.8019 54.1042 65.951 53.9398 66.1404C53.7753 66.3297 53.652 66.5547 53.5784 66.7996C53.5047 67.0444 53.4826 67.3033 53.5135 67.5582C53.5444 67.813 53.6277 68.0577 53.7574 68.2751L55.4292 71.0774C55.6515 71.4501 55.9977 71.7215 56.3999 71.8384C60.2556 72.9548 63.8777 74.8283 67.0768 77.3607C66.8046 78.7543 66.8078 80.1923 67.0862 81.5845L70.3575 80.853C70.1368 79.7518 70.1799 78.6098 70.4831 77.5307C70.7862 76.4515 71.3397 75.4694 72.0934 74.6735L72.3804 74.3703C73.5492 73.1357 75.125 72.4268 76.7777 72.392C78.4304 72.3571 80.0317 72.9991 81.2462 74.1834C78.8997 74.3478 76.6903 75.4097 75.0316 77.1702L74.7447 77.4733C73.919 78.3443 73.2486 79.3653 72.7659 80.4874L75.8094 81.95C76.1264 81.213 76.5666 80.5424 77.109 79.9704L77.3961 79.6671C78.596 78.4 80.2234 77.6879 81.9204 77.6875C83.6173 77.6871 85.245 78.3984 86.4455 79.665L87.9419 81.2453C85.5924 81.4078 83.3798 82.4701 81.7191 84.2327L81.4324 84.5355C81.1333 84.8515 80.854 85.1877 80.5961 85.5419L83.2474 87.6937C83.4167 87.4611 83.6001 87.2404 83.7965 87.0329L84.0836 86.7296C85.2523 85.4951 86.8282 84.7862 88.4809 84.7514C90.1336 84.7165 91.735 85.3585 92.9495 86.5428C90.6029 86.7071 88.3934 87.769 86.7347 89.5296L86.4477 89.8329C84.6203 91.7628 83.5937 94.3802 83.5938 97.1095C83.5938 99.8388 84.6204 102.456 86.4478 104.386L86.7346 104.689C88.562 106.619 91.0405 107.703 93.6249 107.703C96.2093 107.703 98.6878 106.619 100.515 104.689L100.802 104.386C102.63 102.456 103.656 99.8385 103.656 97.1093C103.656 94.38 102.63 91.7625 100.802 89.8326L100.802 89.8326ZM70.016 71.8734L69.7289 72.1766C69.212 72.7232 68.7545 73.3291 68.365 73.983C65.1882 71.5966 61.6574 69.7854 57.9173 68.6236L57.5921 68.0785C61.4153 65.9392 64.5029 62.5822 66.4166 58.4842C67.5042 62.7671 69.3021 66.8124 71.7268 70.4325C71.1075 70.8439 70.5336 71.3272 70.016 71.8733V71.8734ZM98.4379 101.889L98.1508 102.192C96.9504 103.46 95.3224 104.172 93.6249 104.172C91.9274 104.172 90.2994 103.46 89.0991 102.192L88.8122 101.889C87.6119 100.622 86.9375 98.9022 86.9375 97.1095C86.9375 95.3167 87.6118 93.5974 88.8121 92.3298L89.0992 92.0265C90.2996 90.7589 91.9276 90.0468 93.6251 90.0469C95.3226 90.0469 96.9506 90.7591 98.1509 92.0267L98.4379 92.3298H98.4379C99.6382 93.5974 100.312 95.3167 100.312 97.1094C100.312 98.9021 99.6382 100.621 98.4379 101.889L98.4379 101.889Z" fill="url(#paint0_linear_2372_921)"/>
<path d="M17.8995 45.3892L20.0611 43.1064L22.7122 45.9063L18.8789 49.9546L21.2432 52.4517L25.0767 48.4033L27.2383 50.6861L29.6026 48.189L27.4411 45.9063L30.0923 43.1064L32.7435 45.9063L30.582 48.189L32.9464 50.6861L35.1079 48.4033L37.7591 51.2032L37.2695 51.7202L39.6339 54.2174L40.1236 53.7002L42.2851 55.983L44.6495 53.4858L42.488 51.2032L45.1392 48.4033L47.7904 51.2032L45.6289 53.4858L47.9932 55.983L50.1548 53.7002L55.6601 59.5142L58.0245 57.0171L52.5193 51.2032L55.1704 48.4033L59.0039 52.4517L61.3682 49.9546L57.5349 45.9063L59.6964 43.6236L57.332 41.1265L55.1704 43.4092L52.5193 40.6094L55.1704 37.8096L57.332 40.0924L59.6964 37.5952L57.5349 35.3125L59.6964 33.0299L57.332 30.5327L55.1704 32.8155L52.5193 30.0157L54.6807 27.733L52.3164 25.2358L50.1548 27.5186L47.5036 24.7188L51.337 20.6705L48.9726 18.1733L45.1392 22.2217L42.488 19.4219L44.6495 17.1392L42.2851 14.6421L40.1236 16.9249L37.4724 14.125L39.6339 11.8424L37.2695 9.34521L35.1079 11.628L32.9464 9.34521L30.582 11.8424L32.7435 14.125L30.0923 16.9249L26.2589 12.8765L23.8945 15.3736L27.7279 19.4219L25.0767 22.2217L21.2432 18.1733L18.8789 20.6705L22.7122 24.7188L20.0611 27.5186L16.2276 23.4702L13.8633 25.9674L17.6966 30.0157L15.0455 32.8155L12.8839 30.5327L10.5195 33.0299L12.681 35.3125L10.5195 37.5952L12.8839 40.0924L15.0455 37.8096L17.6966 40.6094L15.5352 42.8921L17.8995 45.3892ZM25.0767 43.4092L22.4255 40.6094L25.0767 37.8096L27.7279 40.6094L25.0767 43.4092ZM40.1236 38.1124L37.4724 35.3125L40.1236 32.5127L42.7747 35.3125L40.1236 38.1124ZM45.1392 37.8095L47.7904 40.6094L45.1392 43.4092L42.488 40.6094L45.1392 37.8095ZM35.1079 32.8155L32.4568 30.0157L35.1079 27.2158L37.7591 30.0157L35.1079 32.8155ZM32.7435 35.3125L30.0923 38.1124L27.4411 35.3125L30.0923 32.5127L32.7435 35.3125ZM32.4568 40.6094L35.1079 37.8096L37.7591 40.6094L35.1079 43.4092L32.4568 40.6094ZM40.1236 48.7061L37.4724 45.9063L40.1236 43.1064L42.7747 45.9063L40.1236 48.7061ZM52.806 45.9063L50.1548 48.7061L47.5036 45.9063L50.1548 43.1064L52.806 45.9063ZM52.806 35.3125L50.1548 38.1124L47.5036 35.3125L50.1548 32.5127L52.806 35.3125ZM47.7904 30.0157L45.1392 32.8155L42.488 30.0157L45.1392 27.2158L47.7904 30.0157ZM42.7747 24.7188L40.1236 27.5186L37.4724 24.7188L40.1236 21.9189L42.7747 24.7188ZM35.1079 16.6221L37.7591 19.4219L35.1079 22.2217L32.4568 19.4219L35.1079 16.6221ZM30.0923 21.9189L32.7435 24.7188L30.0923 27.5186L27.4411 24.7188L30.0923 21.9189ZM25.0767 27.2158L27.7279 30.0157L25.0767 32.8155L22.4255 30.0157L25.0767 27.2158ZM17.4099 35.3125L20.0611 32.5127L22.7122 35.3125L20.0611 38.1124L17.4099 35.3125Z" fill="url(#paint1_linear_2372_921)"/>
<path d="M33.3256 74.3253C35.0134 73.2117 36.9066 72.491 38.879 72.2111C40.8513 71.9313 42.8576 72.0987 44.7638 72.7024L49.0743 74.0684C49.7921 76.3761 50.157 78.7898 50.1555 81.2188H53.4992C53.498 75.2943 51.6155 69.5413 48.1526 64.8801C44.6898 60.2189 39.8468 56.9188 34.3983 55.5077C28.9497 54.0965 23.2105 54.6559 18.0985 57.0963C12.9866 59.5368 8.79729 63.7172 6.20077 68.969C3.60425 74.2208 2.7505 80.2405 3.7761 86.0652C4.8017 91.8899 7.64738 97.1831 11.858 101.098C16.0686 105.013 21.4008 107.324 27.0017 107.66C32.6026 107.997 38.1486 106.34 42.7526 102.955L40.8397 100.059C38.759 101.594 36.4382 102.729 33.984 103.412L31.6273 100.569C28.4824 96.7724 26.7491 91.8997 26.7492 86.8556C26.7473 84.3857 27.3349 81.9552 28.4576 79.7885C31.2096 80.8753 33.8515 82.251 36.3436 83.8946L42.5822 88.013L44.3545 85.0184L38.1157 80.9001C35.6878 79.3 33.1274 77.9359 30.466 76.8247C31.3088 75.86 32.2707 75.0194 33.3256 74.3253ZM47.2766 69.812L45.7252 69.3203C43.3635 68.5723 40.878 68.3646 38.4344 68.7112C35.9908 69.0578 33.6453 69.9507 31.5542 71.3303C29.8449 72.4556 28.3369 73.8903 27.0993 75.5686C25.6526 75.0945 24.1778 74.6939 22.6874 74.368C26.2145 68.4119 31.12 63.5029 36.9414 60.104C41.2902 62.0741 44.9166 65.4805 47.2766 69.812ZM32.6527 58.7039C27.0985 62.5329 22.4697 67.6814 19.1366 73.7376C17.6613 73.5367 16.1725 73.4107 14.684 73.358C15.7194 69.6214 16.3922 65.7832 16.6921 61.9028C21.4201 58.6961 27.141 57.5495 32.6527 58.7039ZM6.68672 81.2188C6.68668 79.9084 6.79267 78.6003 7.00354 77.3089C7.99051 77.1629 8.98303 77.0518 9.98108 76.9756C9.09056 79.3632 8.03983 81.6806 6.83691 83.9102C6.73724 83.0169 6.68709 82.1183 6.68672 81.2188ZM12.9851 65.0769C12.5936 67.8871 11.9923 70.6602 11.1867 73.3702C10.093 73.4168 8.9984 73.5023 7.90936 73.6291C8.98078 70.4166 10.7144 67.4956 12.9851 65.0769ZM7.91114 88.8138C10.24 85.0776 12.1478 81.0671 13.5958 76.8636C14.8838 76.8788 16.1735 76.9547 17.4561 77.0896C14.5408 83.5149 13.121 90.5827 13.3148 97.7045C10.885 95.2237 9.035 92.1799 7.91114 88.8138ZM29.1108 102.894L30.1129 104.103C29.5524 104.149 28.9885 104.172 28.4211 104.172C24.3215 104.177 20.3052 102.95 16.8414 100.634C16.0743 92.7009 17.4996 84.7028 20.9448 77.6067C22.3924 77.8839 23.8259 78.2376 25.2399 78.6666C24.0317 81.2077 23.4034 84.0122 23.4055 86.8556C23.4053 92.755 25.4326 98.454 29.1108 102.894Z" fill="url(#paint2_linear_2372_921)"/>
<path d="M68.5452 84.75C66.4924 84.7483 64.4757 85.3206 62.7001 86.4088C60.9211 85.3226 58.9026 84.7502 56.8476 84.7491C54.7927 84.7481 52.7737 85.3186 50.9937 86.4031C49.2137 87.4876 47.7355 89.0479 46.7077 90.9272C45.6799 92.8064 45.1387 94.9383 45.1387 97.1085C45.1386 99.2787 45.6796 101.411 46.7073 103.29C47.735 105.169 49.2131 106.73 50.993 107.814C52.7729 108.899 54.7919 109.47 56.8469 109.469C58.9018 109.468 60.9204 108.896 62.6995 107.809C64.2539 108.757 65.994 109.314 67.7849 109.437C69.5758 109.561 71.3696 109.248 73.0276 108.522C74.6856 107.796 76.1633 106.678 77.3463 105.252C78.5294 103.827 79.3862 102.133 79.8503 100.302C80.3145 98.4716 80.3736 96.5525 80.0231 94.6936C79.6726 92.8347 78.9218 91.0859 77.829 89.5824C76.7361 88.0789 75.3304 86.8611 73.7206 86.0232C72.1108 85.1852 70.34 84.7496 68.5452 84.75ZM76.8711 96.3426L76.415 95.861C75.8207 95.2332 75.1151 94.7353 74.3385 94.3955C73.5619 94.0558 72.7296 93.8809 71.889 93.8809C71.0484 93.8809 70.2161 94.0558 69.4395 94.3955C68.6629 94.7353 67.9573 95.2332 67.363 95.861C67.0791 96.1608 66.7421 96.3986 66.3712 96.5608C66.0004 96.7231 65.6028 96.8065 65.2014 96.8065C64.8 96.8065 64.4025 96.723 64.0316 96.5607C63.6607 96.3984 63.3237 96.1606 63.0399 95.8608L60.8836 93.5836C61.6255 91.7841 62.9142 90.2971 64.5459 89.3578C66.1776 88.4184 68.0593 88.0802 69.8934 88.3967C71.7275 88.7133 73.4094 89.6664 74.6731 91.1054C75.9368 92.5445 76.7102 94.3873 76.8711 96.3426H76.8711ZM56.8421 88.2812C57.8654 88.2804 58.88 88.4783 59.8355 88.865C58.4241 90.5231 57.4648 92.5544 57.0598 94.7426C56.5466 95.0455 56.0755 95.4219 55.6599 95.861C55.376 96.1608 55.039 96.3986 54.6681 96.5608C54.2972 96.723 53.8997 96.8065 53.4983 96.8065C53.0968 96.8065 52.6993 96.723 52.3285 96.5607C51.9576 96.3984 51.6206 96.1606 51.3368 95.8608L49.1805 93.5836C49.8315 92.0091 50.9028 90.669 52.2635 89.7273C53.6242 88.7857 55.2153 88.2831 56.8421 88.2812ZM48.5163 97.8761L48.9724 98.3577C50.0141 99.4576 51.3832 100.145 52.8487 100.303C54.3141 100.461 55.7864 100.081 57.0174 99.2261C57.393 101.508 58.3698 103.632 59.8359 105.354C58.6271 105.843 57.3275 106.028 56.0392 105.896C54.751 105.764 53.5094 105.318 52.4121 104.593C51.3149 103.868 50.3919 102.884 49.7158 101.719C49.0398 100.553 48.6292 99.2377 48.5163 97.8761ZM68.5452 105.937C66.4549 105.935 64.4412 105.106 62.9004 103.614C61.3596 102.122 60.4032 100.075 60.2194 97.8761L60.6755 98.3577C61.2698 98.9855 61.9754 99.4834 62.752 99.8232C63.5286 100.163 64.3609 100.338 65.2015 100.338C66.0421 100.338 66.8744 100.163 67.651 99.8232C68.4276 99.4834 69.1332 98.9855 69.7275 98.3577C70.0114 98.0579 70.3484 97.8201 70.7193 97.6579C71.0901 97.4956 71.4876 97.4122 71.8891 97.4122C72.2905 97.4122 72.688 97.4957 73.0589 97.658C73.4298 97.8203 73.7667 98.0581 74.0506 98.3579L76.2069 100.635C75.5559 102.21 74.4845 103.55 73.1238 104.491C71.7631 105.433 70.1721 105.936 68.5452 105.937Z" fill="url(#paint3_linear_2372_921)"/>
<defs>
<linearGradient id="paint0_linear_2372_921" x1="5.01563" y1="55.6171" x2="103.656" y2="55.6171" gradientUnits="userSpaceOnUse">
<stop stop-color="#FFFA27"/>
<stop offset="0.333928" stop-color="#A9E048"/>
<stop offset="1" stop-color="#44C16F"/>
</linearGradient>
<linearGradient id="paint1_linear_2372_921" x1="10.5195" y1="34.4297" x2="61.3682" y2="34.4297" gradientUnits="userSpaceOnUse">
<stop stop-color="#FFFA27"/>
<stop offset="0.333928" stop-color="#A9E048"/>
<stop offset="1" stop-color="#44C16F"/>
</linearGradient>
<linearGradient id="paint2_linear_2372_921" x1="3.35352" y1="81.2244" x2="53.4992" y2="81.2244" gradientUnits="userSpaceOnUse">
<stop stop-color="#FFFA27"/>
<stop offset="0.333928" stop-color="#A9E048"/>
<stop offset="1" stop-color="#44C16F"/>
</linearGradient>
<linearGradient id="paint3_linear_2372_921" x1="45.1387" y1="97.1089" x2="80.2484" y2="97.1089" gradientUnits="userSpaceOnUse">
<stop stop-color="#FFFA27"/>
<stop offset="0.333928" stop-color="#A9E048"/>
<stop offset="1" stop-color="#44C16F"/>
</linearGradient>
</defs>
</svg>
