<svg width="109" height="113" viewBox="0 0 109 113" fill="none" xmlns="http://www.w3.org/2000/svg">
<path d="M3.40625 90.0469H34.0625V93.5781H3.40625V90.0469Z" fill="url(#paint0_linear_2372_928)"/>
<path d="M22.1406 30.0156H32.3594V14.125H22.1406V30.0156ZM25.5469 17.6562H28.9531V26.4844H25.5469V17.6562Z" fill="url(#paint1_linear_2372_928)"/>
<path d="M39.1719 14.125V30.0156H49.3906V14.125H39.1719ZM45.9844 26.4844H42.5781V17.6562H45.9844V26.4844Z" fill="url(#paint2_linear_2372_928)"/>
<path d="M22.1406 51.2031H32.3594V35.3125H22.1406V51.2031ZM25.5469 38.8438H28.9531V47.6719H25.5469V38.8438Z" fill="url(#paint3_linear_2372_928)"/>
<path d="M39.1719 51.2031H49.3906V35.3125H39.1719V51.2031ZM42.5781 38.8438H45.9844V47.6719H42.5781V38.8438Z" fill="url(#paint4_linear_2372_928)"/>
<path d="M93.2562 48.7825L82.3098 51.0521L79.0493 47.6719H82.2657L87.1773 44.2774L94.5843 46.197L106.176 22.1636L69.0298 2.90906L57.9063 27.4139V7.06254H13.625V65.3282H22.846L27.25 60.7627L30.2673 63.8907L40.875 59.1777V59.2999L33.357 67.0938H28.2477L24.8414 70.625H13.625V82.9844H3.40625V86.5157H36.7632L40.1695 90.0469L35.0602 95.3438L40.1696 100.641L36.2645 104.689L38.673 107.186L51.7992 93.5782H74.9375V90.0469H55.2054L51.7993 86.5157H81.0446L77.6384 90.0469L84.4507 97.1094L80.0469 101.675V109.469H83.4531V103.138L89.2679 97.1094L82.4555 90.0469L85.8617 86.5157H105.594V82.9844H77.6288L93.2562 48.7825ZM70.6265 7.68478L101.606 23.7428L92.7595 42.0843L86.5415 40.4727L81.2343 44.1407H70.8257L81.1902 54.8855L87.2751 53.6238L73.8597 82.9844H57.9063V67.3022L58.6679 67.697L65.3006 53.9448L57.9063 50.112V45.2318L67.1835 50.0407L73.8162 36.2886L63.9571 31.1781L57.9063 43.7239V35.7073L70.6265 7.68478ZM57.9063 54.06L60.7307 55.524L57.9063 61.3802V54.06ZM61.8943 43.3511L65.4804 35.9157L69.2463 37.8678L65.6602 45.3031L61.8943 43.3511ZM44.2813 60.7626V60.0313H45.9844V68.8594H40.875V64.2938L44.2813 60.7626ZM43.5758 82.9844L50.3882 90.0469L42.5781 98.1437L39.8774 95.3438L44.9867 90.0469L38.1742 82.9844H17.0313V74.1563H26.2523L29.6586 70.625H34.7679L37.4688 67.8251V72.3907H49.3906V56.5H44.2813V53.8224L31.0452 59.7031L27.25 55.7687L21.4351 61.7969H17.0313V10.5938H54.5V82.9844H43.5758Z" fill="url(#paint5_linear_2372_928)"/>
<path d="M82.3316 18.6323L72.4725 13.5219L65.8398 27.274L75.6989 32.3844L82.3316 18.6323ZM70.4097 25.6948L73.9958 18.2594L77.7617 20.2115L74.1756 27.6469L70.4097 25.6948Z" fill="url(#paint6_linear_2372_928)"/>
<path d="M89.3239 39.4469L95.9566 25.6948L86.0975 20.5844L79.4648 34.3365L89.3239 39.4469ZM87.6208 25.3219L91.3867 27.274L87.8006 34.7094L84.0347 32.7573L87.6208 25.3219Z" fill="url(#paint7_linear_2372_928)"/>
<path d="M64.1367 69.6491L73.9958 74.7595L80.6285 61.0074L70.7694 55.897L64.1367 69.6491ZM76.0586 62.5866L72.4725 70.022L68.7066 68.0699L72.2927 60.6345L76.0586 62.5866Z" fill="url(#paint8_linear_2372_928)"/>
<path d="M95.5396 59.1287L90.3398 64.5192L101.396 67.3846L105.962 57.9171L97.8578 49.5153L95.5396 59.1287ZM99.7032 56.4224L101.818 58.6143L99.5713 63.2718L97.0025 62.606L98.6153 60.934L99.7032 56.4224Z" fill="url(#paint9_linear_2372_928)"/>
<path d="M88.6895 73.1693L91.7346 71.5908L93.437 75.1205L90.3918 76.699L88.6895 73.1693Z" fill="url(#paint10_linear_2372_928)"/>
<path d="M99.2617 77.1736L101.67 74.677L105.076 78.2076L102.667 80.7042L99.2617 77.1736Z" fill="url(#paint11_linear_2372_928)"/>
<path d="M102.188 8.82812H105.594C105.592 7.42379 105.053 6.07742 104.096 5.0844C103.138 4.09139 101.839 3.53282 100.484 3.53125V7.0625C100.936 7.06304 101.369 7.24923 101.688 7.58023C102.007 7.91123 102.187 8.36002 102.188 8.82812Z" fill="url(#paint12_linear_2372_928)"/>
<path d="M6.10742 19.4219L3.90528 21.7046L6.31393 24.2016L10.9243 19.4219L7.51803 15.8906L10.9243 12.3594L7.51803 8.82811L9.72018 6.54538L7.31153 4.04834L2.70117 8.82811L6.10742 12.3594L2.70117 15.8906L6.10742 19.4219Z" fill="url(#paint13_linear_2372_928)"/>
<path d="M5.60352 46.4194L9.00919 42.8888L11.4174 45.3854L8.01173 48.916L5.60352 46.4194Z" fill="url(#paint14_linear_2372_928)"/>
<path d="M3.89844 71.8665L6.30666 69.3699L9.71233 72.9005L7.30411 75.3971L3.89844 71.8665Z" fill="url(#paint15_linear_2372_928)"/>
<path d="M93.6712 10.5938C95.0258 10.5953 96.3245 11.1539 97.2824 12.1469C98.2402 13.1399 98.779 14.4863 98.7805 15.8906H102.187C102.186 14.3409 101.793 12.8186 101.045 11.4766C100.298 10.1347 99.2226 9.02027 97.928 8.24544C96.6335 7.47061 95.165 7.06263 93.6702 7.0625C92.1753 7.06237 90.7068 7.47009 89.4121 8.24469L91.1177 11.3013C91.8942 10.8372 92.7749 10.5931 93.6712 10.5938Z" fill="url(#paint16_linear_2372_928)"/>
<path d="M88.5625 90.0469H105.594V93.5781H88.5625V90.0469Z" fill="url(#paint17_linear_2372_928)"/>
<defs>
<linearGradient id="paint0_linear_2372_928" x1="3.40625" y1="91.8125" x2="34.0625" y2="91.8125" gradientUnits="userSpaceOnUse">
<stop stop-color="#FFFA27"/>
<stop offset="0.333928" stop-color="#A9E048"/>
<stop offset="1" stop-color="#44C16F"/>
</linearGradient>
<linearGradient id="paint1_linear_2372_928" x1="22.1406" y1="22.0703" x2="32.3594" y2="22.0703" gradientUnits="userSpaceOnUse">
<stop stop-color="#FFFA27"/>
<stop offset="0.333928" stop-color="#A9E048"/>
<stop offset="1" stop-color="#44C16F"/>
</linearGradient>
<linearGradient id="paint2_linear_2372_928" x1="39.1719" y1="22.0703" x2="49.3906" y2="22.0703" gradientUnits="userSpaceOnUse">
<stop stop-color="#FFFA27"/>
<stop offset="0.333928" stop-color="#A9E048"/>
<stop offset="1" stop-color="#44C16F"/>
</linearGradient>
<linearGradient id="paint3_linear_2372_928" x1="22.1406" y1="43.2578" x2="32.3594" y2="43.2578" gradientUnits="userSpaceOnUse">
<stop stop-color="#FFFA27"/>
<stop offset="0.333928" stop-color="#A9E048"/>
<stop offset="1" stop-color="#44C16F"/>
</linearGradient>
<linearGradient id="paint4_linear_2372_928" x1="39.1719" y1="43.2578" x2="49.3906" y2="43.2578" gradientUnits="userSpaceOnUse">
<stop stop-color="#FFFA27"/>
<stop offset="0.333928" stop-color="#A9E048"/>
<stop offset="1" stop-color="#44C16F"/>
</linearGradient>
<linearGradient id="paint5_linear_2372_928" x1="3.40625" y1="56.1889" x2="106.176" y2="56.1889" gradientUnits="userSpaceOnUse">
<stop stop-color="#FFFA27"/>
<stop offset="0.333928" stop-color="#A9E048"/>
<stop offset="1" stop-color="#44C16F"/>
</linearGradient>
<linearGradient id="paint6_linear_2372_928" x1="65.8398" y1="22.9531" x2="82.3316" y2="22.9531" gradientUnits="userSpaceOnUse">
<stop stop-color="#FFFA27"/>
<stop offset="0.333928" stop-color="#A9E048"/>
<stop offset="1" stop-color="#44C16F"/>
</linearGradient>
<linearGradient id="paint7_linear_2372_928" x1="79.4648" y1="30.0156" x2="95.9566" y2="30.0156" gradientUnits="userSpaceOnUse">
<stop stop-color="#FFFA27"/>
<stop offset="0.333928" stop-color="#A9E048"/>
<stop offset="1" stop-color="#44C16F"/>
</linearGradient>
<linearGradient id="paint8_linear_2372_928" x1="64.1367" y1="65.3283" x2="80.6285" y2="65.3283" gradientUnits="userSpaceOnUse">
<stop stop-color="#FFFA27"/>
<stop offset="0.333928" stop-color="#A9E048"/>
<stop offset="1" stop-color="#44C16F"/>
</linearGradient>
<linearGradient id="paint9_linear_2372_928" x1="90.3398" y1="58.4499" x2="105.962" y2="58.4499" gradientUnits="userSpaceOnUse">
<stop stop-color="#FFFA27"/>
<stop offset="0.333928" stop-color="#A9E048"/>
<stop offset="1" stop-color="#44C16F"/>
</linearGradient>
<linearGradient id="paint10_linear_2372_928" x1="89.5406" y1="74.9341" x2="92.6288" y2="73.4447" gradientUnits="userSpaceOnUse">
<stop stop-color="#FFFA27"/>
<stop offset="0.333928" stop-color="#A9E048"/>
<stop offset="1" stop-color="#44C16F"/>
</linearGradient>
<linearGradient id="paint11_linear_2372_928" x1="100.965" y1="78.9389" x2="103.46" y2="76.5322" gradientUnits="userSpaceOnUse">
<stop stop-color="#FFFA27"/>
<stop offset="0.333928" stop-color="#A9E048"/>
<stop offset="1" stop-color="#44C16F"/>
</linearGradient>
<linearGradient id="paint12_linear_2372_928" x1="100.484" y1="6.17969" x2="105.594" y2="6.17969" gradientUnits="userSpaceOnUse">
<stop stop-color="#FFFA27"/>
<stop offset="0.333928" stop-color="#A9E048"/>
<stop offset="1" stop-color="#44C16F"/>
</linearGradient>
<linearGradient id="paint13_linear_2372_928" x1="2.70117" y1="14.125" x2="10.9243" y2="14.125" gradientUnits="userSpaceOnUse">
<stop stop-color="#FFFA27"/>
<stop offset="0.333928" stop-color="#A9E048"/>
<stop offset="1" stop-color="#44C16F"/>
</linearGradient>
<linearGradient id="paint14_linear_2372_928" x1="6.80763" y1="47.6677" x2="10.336" y2="44.2643" gradientUnits="userSpaceOnUse">
<stop stop-color="#FFFA27"/>
<stop offset="0.333928" stop-color="#A9E048"/>
<stop offset="1" stop-color="#44C16F"/>
</linearGradient>
<linearGradient id="paint15_linear_2372_928" x1="5.60127" y1="73.6318" x2="8.09625" y2="71.2251" gradientUnits="userSpaceOnUse">
<stop stop-color="#FFFA27"/>
<stop offset="0.333928" stop-color="#A9E048"/>
<stop offset="1" stop-color="#44C16F"/>
</linearGradient>
<linearGradient id="paint16_linear_2372_928" x1="89.4121" y1="11.4766" x2="102.187" y2="11.4766" gradientUnits="userSpaceOnUse">
<stop stop-color="#FFFA27"/>
<stop offset="0.333928" stop-color="#A9E048"/>
<stop offset="1" stop-color="#44C16F"/>
</linearGradient>
<linearGradient id="paint17_linear_2372_928" x1="88.5625" y1="91.8125" x2="105.594" y2="91.8125" gradientUnits="userSpaceOnUse">
<stop stop-color="#FFFA27"/>
<stop offset="0.333928" stop-color="#A9E048"/>
<stop offset="1" stop-color="#44C16F"/>
</linearGradient>
</defs>
</svg>
