<svg width="108" height="113" viewBox="0 0 108 113" fill="none" xmlns="http://www.w3.org/2000/svg">
<g clip-path="url(#clip0_2372_872)">
<path d="M58.7461 113H49.2539C45.7646 113 42.9258 110.03 42.9258 106.379C42.9258 103.299 44.9455 100.704 47.6719 99.9673V97.2204C47.6719 96.5925 47.2359 96.0485 46.6349 95.9262C41.5823 94.8988 36.851 92.8485 32.5723 89.8321C32.0602 89.4706 31.3803 89.5311 30.9555 89.9751L29.0828 91.9343C30.3889 94.3131 30.224 97.3778 28.5065 99.5232C27.3645 100.95 25.6956 101.814 23.9271 101.896C22.1588 101.975 20.4247 101.273 19.1725 99.9631L12.4603 92.9403C11.2651 91.6898 10.607 90.0272 10.607 88.2585C10.607 86.4898 11.2651 84.827 12.4603 83.5765C13.6557 82.326 15.2447 81.6374 16.9351 81.6374C18.0845 81.6374 19.1873 81.9557 20.1509 82.5527L22.0063 80.6114C22.4309 80.1673 22.4883 79.4558 22.143 78.9197C19.2601 74.4429 17.3005 69.4926 16.3185 64.2063C16.2017 63.5773 15.6815 63.1211 15.0816 63.1211H12.4586C12.1721 64.2946 11.5794 65.3648 10.7224 66.2304C9.47531 67.4897 7.83506 68.1441 6.09926 68.0829C2.67912 67.9554 0 65.0024 0 61.3601V51.5342C0 49.7238 0.685125 48.0334 1.92923 46.7745C3.17334 45.516 4.81507 44.8564 6.54328 44.9171C9.34158 45.0146 11.7066 47.1124 12.4293 49.8789H15.0814C15.6815 49.8789 16.2017 49.4227 16.3183 48.7939C17.3003 43.5074 19.2599 38.5571 22.1427 34.0803C22.488 33.5442 22.4305 32.8327 22.0061 32.3886L20.1506 30.4473C19.1871 31.0443 18.0843 31.3626 16.9349 31.3626C15.2445 31.3626 13.6555 30.674 12.4601 29.4235C9.99274 26.8419 9.99274 22.6413 12.4601 20.0595L19.1721 13.0369C21.6394 10.4551 25.654 10.4556 28.1216 13.0369C29.3167 14.2877 29.9749 15.9502 29.9749 17.7189C29.9749 18.9213 29.6707 20.0752 29.1001 21.0835L30.9555 23.0249C31.3803 23.4693 32.06 23.5292 32.5721 23.1679C36.851 20.1515 41.5823 18.1012 46.6347 17.0738C47.2359 16.9515 47.6719 16.4073 47.6719 15.7796V13.0327C44.9455 12.2958 42.9258 9.70056 42.9258 6.62109C42.9258 2.97022 45.7646 0 49.2539 0H58.7461C62.2354 0 65.0742 2.97022 65.0742 6.62109C65.0742 9.70056 63.0545 12.2958 60.3281 13.0327V15.7796C60.3281 16.4075 60.7641 16.9518 61.3651 17.0738C66.4177 18.1012 71.149 20.1515 75.4277 23.1679C75.9398 23.5292 76.6199 23.4691 77.0445 23.0249L78.9016 21.082C77.4716 18.5433 77.7975 15.2142 79.8784 13.0369C82.3456 10.4556 86.3603 10.4551 88.8279 13.0369L95.5399 20.0595C98.0073 22.6411 98.0073 26.8417 95.5399 29.4235C94.3445 30.674 92.7555 31.3626 91.0651 31.3626C89.9159 31.3626 88.8131 31.0443 87.8493 30.4473L85.9939 32.3886C85.5693 32.8327 85.512 33.5442 85.8573 34.0803C88.7401 38.5571 90.6998 43.5074 91.6817 48.7937C91.7985 49.4227 92.3187 49.8789 92.9186 49.8789H95.5663C96.2504 47.2302 98.4384 45.1854 101.103 44.9394H101.103C102.875 44.774 104.639 45.3993 105.945 46.65C107.251 47.9014 108 49.6816 108 51.5342V61.4658C108 63.3184 107.251 65.0986 105.945 66.35C104.639 67.6007 102.873 68.224 101.103 68.0607C98.4384 67.8146 96.2504 65.7698 95.5663 63.1211H92.9186C92.3185 63.1211 91.7985 63.5773 91.6817 64.2061C90.6998 69.4926 88.7401 74.4429 85.8573 78.9197C85.512 79.4558 85.5695 80.1673 85.9939 80.6114L87.8493 82.5527C88.8131 81.9557 89.9159 81.6374 91.0651 81.6374C92.7555 81.6374 94.3445 82.326 95.5399 83.5765C96.7351 84.827 97.3932 86.4898 97.3932 88.2585C97.3932 90.0272 96.7351 91.6898 95.5397 92.9403L88.8279 99.9631C87.5758 101.273 85.8438 101.978 84.0732 101.896C82.3046 101.814 80.6357 100.95 79.4937 99.5234C77.7762 97.3777 77.6109 94.3133 78.9174 91.9343L77.0447 89.9751C76.6201 89.5309 75.9402 89.4706 75.4281 89.8321C71.1492 92.8485 66.4179 94.8988 61.3655 95.9262C60.7643 96.0485 60.3283 96.5927 60.3283 97.2204V99.9673C63.0547 100.704 65.0744 103.299 65.0744 106.379C65.0742 110.03 62.2354 113 58.7461 113ZM31.8431 85.1848C32.913 85.1848 33.9903 85.509 34.93 86.1716C38.7366 88.8551 42.9456 90.6794 47.4398 91.5931C50.0186 92.1173 51.8906 94.4839 51.8906 97.2204V101.413C51.8906 102.934 50.7079 104.172 49.2539 104.172C48.0908 104.172 47.1445 105.162 47.1445 106.379C47.1445 107.596 48.0908 108.586 49.2539 108.586H58.7461C59.9092 108.586 60.8555 107.596 60.8555 106.379C60.8555 105.162 59.9092 104.172 58.7461 104.172C57.2921 104.172 56.1094 102.934 56.1094 101.413V97.2204C56.1094 94.4841 57.9814 92.1173 60.5606 91.5931C65.0546 90.6792 69.2636 88.8551 73.0704 86.1716C75.253 84.6328 78.1791 84.9195 80.0278 86.854L82.9292 89.8897C83.92 90.9264 83.92 92.6134 82.9292 93.6501C82.1254 94.4912 82.037 95.8258 82.7278 96.6892C83.1174 97.1754 83.6612 97.4585 84.259 97.4861C84.8608 97.5122 85.4215 97.2851 85.845 96.8419L92.5568 89.8191C92.9555 89.4022 93.1747 88.8482 93.1747 88.2587C93.1747 87.669 92.9553 87.1148 92.5568 86.6981C91.7344 85.8376 90.396 85.8381 89.5738 86.6981L89.5063 86.7688C88.5157 87.8054 86.9033 87.8056 85.9123 86.7688L83.0109 83.733C81.1622 81.7988 80.888 78.7372 82.3587 76.4535C84.9234 72.4705 86.6671 68.0666 87.5403 63.3643C88.0413 60.6658 90.3032 58.707 92.9186 58.707H97.0209C98.4222 58.707 99.5625 59.8999 99.5625 61.3663C99.5625 62.5557 100.402 63.5647 101.474 63.6638C102.078 63.719 102.654 63.5173 103.095 63.0944C103.538 62.6709 103.781 62.0924 103.781 61.4658V51.5342C103.781 50.9076 103.538 50.3291 103.095 49.9056C102.654 49.4823 102.075 49.2799 101.474 49.3362C100.402 49.4353 99.5625 50.4443 99.5625 51.6337C99.5625 53.0998 98.4224 54.293 97.0209 54.293H92.9186C90.3034 54.293 88.0413 52.3342 87.5403 49.6357C86.6668 44.9336 84.9234 40.5297 82.3587 36.5467C80.8878 34.2628 81.1622 31.2012 83.0109 29.2672L85.8448 26.3021C86.8731 25.2264 88.5457 25.2266 89.574 26.3021C90.3962 27.1624 91.7346 27.1628 92.5571 26.3021C93.3795 25.4416 93.3795 24.0414 92.5571 23.1807L85.845 16.1581C85.0232 15.298 83.6848 15.2972 82.8619 16.1581C82.0395 17.0184 82.0395 18.4188 82.8619 19.2793C83.8901 20.355 83.8901 22.1054 82.8619 23.1811L80.028 26.1463C78.1791 28.0805 75.2532 28.3674 73.0704 26.8287C69.2639 24.1451 65.0548 22.3208 60.5606 21.4071C57.9814 20.8827 56.1094 18.5161 56.1094 15.7796V11.5869C56.1094 10.0656 57.2921 8.82812 58.7461 8.82812C59.9092 8.82812 60.8555 7.83805 60.8555 6.62109C60.8555 5.40414 59.9092 4.41406 58.7461 4.41406H49.2539C48.0908 4.41406 47.1445 5.40414 47.1445 6.62109C47.1445 7.83805 48.0908 8.82812 49.2539 8.82812C50.7079 8.82812 51.8906 10.0656 51.8906 11.5869V15.7796C51.8906 18.5159 50.0186 20.8827 47.4394 21.4069C42.9454 22.3208 38.7364 24.1449 34.9296 26.8285C32.747 28.3672 29.8209 28.0805 27.9722 26.146L25.1383 23.1809C24.6405 22.6598 24.366 21.967 24.366 21.2301C24.366 20.4927 24.6407 19.7997 25.1391 19.2786C25.9609 18.4188 25.9609 17.0184 25.1383 16.1579C24.3158 15.2969 22.9774 15.2974 22.1552 16.1579L15.4432 23.1804C14.6207 24.041 14.6207 25.4411 15.4432 26.3019C15.8416 26.7188 16.3713 26.9483 16.9347 26.9483C17.4981 26.9483 18.0278 26.719 18.426 26.3021C19.4539 25.2261 21.1269 25.2264 22.1552 26.3019L24.9891 29.267C26.8378 31.2012 27.112 34.2628 25.6414 36.5465C23.0766 40.5295 21.333 44.9334 20.4597 49.6357C19.9587 52.3342 17.6968 54.293 15.0814 54.293H10.9637C9.57066 54.293 8.4375 53.1074 8.4375 51.6498C8.4375 50.409 7.52456 49.3675 6.40259 49.3285C5.82525 49.3062 5.27639 49.5275 4.86211 49.9475C4.4472 50.3671 4.21875 50.9308 4.21875 51.5342V61.3601C4.21875 62.5929 5.12958 63.6298 6.24923 63.6715C6.83037 63.6938 7.37712 63.474 7.79245 63.0544C8.20842 62.6344 8.4375 62.0701 8.4375 61.4658C8.4375 59.9445 9.62023 58.707 11.0742 58.707H15.0814C17.6966 58.707 19.9587 60.6658 20.4597 63.3643C21.3332 68.0664 23.0766 72.4703 25.6414 76.4533C27.1122 78.7372 26.8378 81.7988 24.9891 83.7328L22.0877 86.7685C21.0969 87.8054 19.4845 87.8052 18.4937 86.7685L18.4262 86.6979C18.0278 86.2808 17.4983 86.0515 16.9349 86.0515C16.3715 86.0515 15.8416 86.281 15.4434 86.6979C15.0449 87.1148 14.8255 87.6688 14.8255 88.2585C14.8255 88.848 15.0447 89.4022 15.4432 89.8189L22.1554 96.8417C22.579 97.2846 23.1434 97.5137 23.7412 97.4859C24.339 97.4583 24.8828 97.1751 25.2724 96.6887C25.9632 95.8258 25.8749 94.491 25.0712 93.6499C24.0802 92.6132 24.0802 90.9262 25.071 89.8895L27.9724 86.8537C29.0252 85.7522 30.4277 85.1848 31.8431 85.1848Z" fill="url(#paint0_linear_2372_872)"/>
<path d="M45.8516 47.2035C40.9665 47.2035 36.9922 43.0452 36.9922 37.934C36.9922 32.8227 40.9665 28.6644 45.8516 28.6644C50.7367 28.6644 54.7109 32.8227 54.7109 37.934C54.7109 43.0452 50.7367 47.2035 45.8516 47.2035ZM45.8516 33.0785C43.2927 33.0785 41.2109 35.2566 41.2109 37.934C41.2109 40.6113 43.2927 42.7894 45.8516 42.7894C48.4104 42.7894 50.4922 40.6113 50.4922 37.934C50.4922 35.2566 48.4104 33.0785 45.8516 33.0785Z" fill="url(#paint1_linear_2372_872)"/>
<path d="M39.8671 78.5273C35.6412 78.5273 32.2031 74.9301 32.2031 70.5085C32.2031 66.087 35.6412 62.4895 39.8671 62.4895C44.093 62.4895 47.5311 66.087 47.5311 70.5085C47.5311 74.9301 44.093 78.5273 39.8671 78.5273ZM39.8671 66.9036C37.9674 66.9036 36.4219 68.5207 36.4219 70.5085C36.4219 72.4962 37.9674 74.1133 39.8671 74.1133C41.7668 74.1133 43.3124 72.4962 43.3124 70.5085C43.3124 68.5207 41.7668 66.9036 39.8671 66.9036Z" fill="url(#paint2_linear_2372_872)"/>
<path d="M68.7305 76.3313C62.1197 76.3313 56.5573 71.1569 55.7918 64.2952C55.6566 63.0847 56.4854 61.9887 57.6424 61.8472C58.7998 61.7068 59.8469 62.5726 59.9821 63.7836C60.4993 68.4206 64.2603 71.9172 68.7305 71.9172C73.5873 71.9172 77.539 67.7828 77.539 62.7009C77.539 57.9942 74.1733 54.0559 69.7101 53.5406C68.5522 53.4071 67.7169 52.3163 67.8448 51.1049C67.9726 49.8932 69.0161 49.0219 70.1727 49.1532C76.7773 49.9158 81.7578 55.7401 81.7578 62.7009C81.7578 70.2167 75.9138 76.3313 68.7305 76.3313Z" fill="url(#paint3_linear_2372_872)"/>
<path d="M66.0234 40.1415C65.4687 40.1415 64.9245 39.9053 64.5321 39.4948C64.1398 39.0843 63.9141 38.5149 63.9141 37.9344C63.9141 37.3518 64.1396 36.7846 64.5321 36.3741C64.9245 35.9638 65.4687 35.7274 66.0234 35.7274C66.5782 35.7274 67.1224 35.9636 67.5146 36.3741C67.9069 36.7846 68.1328 37.354 68.1328 37.9344C68.1328 38.5149 67.9071 39.0843 67.5146 39.4948C67.1224 39.9053 66.5782 40.1415 66.0234 40.1415Z" fill="url(#paint4_linear_2372_872)"/>
<path d="M54 84.9707C53.4452 84.9707 52.901 84.7346 52.5087 84.3238C52.1163 83.9135 51.8906 83.3441 51.8906 82.7637C51.8906 82.1832 52.1161 81.6138 52.5087 81.2033C52.901 80.7928 53.4431 80.5566 54 80.5566C54.5548 80.5566 55.099 80.7926 55.4911 81.2033C55.8835 81.6138 56.1094 82.1832 56.1094 82.7637C56.1094 83.3441 55.8837 83.9135 55.4911 84.3238C55.099 84.7346 54.5548 84.9707 54 84.9707Z" fill="url(#paint5_linear_2372_872)"/>
<path d="M30.3047 58.7357C29.7478 58.7357 29.2057 58.4996 28.8134 58.0891C28.4189 57.6786 28.1953 57.1091 28.1953 56.5287C28.1953 55.946 28.4189 55.3788 28.8134 54.9683C29.2038 54.5556 29.748 54.3217 30.3047 54.3217C30.8595 54.3217 31.4037 54.5556 31.796 54.9683C32.1881 55.3788 32.4141 55.9482 32.4141 56.5287C32.4141 57.1091 32.1884 57.6763 31.796 58.0891C31.4037 58.4996 30.8595 58.7357 30.3047 58.7357Z" fill="url(#paint6_linear_2372_872)"/>
<path d="M60.9863 56.8575C60.4316 56.8575 59.8873 56.6214 59.495 56.2107C59.1027 55.8004 58.877 55.231 58.877 54.6505C58.877 54.0676 59.1024 53.5006 59.495 53.0879C59.8873 52.6774 60.4316 52.4435 60.9863 52.4435C61.5411 52.4435 62.0853 52.6774 62.4774 53.0879C62.8698 53.5006 63.0957 54.0679 63.0957 54.6505C63.0957 55.231 62.87 55.7979 62.4774 56.2107C62.0853 56.6214 61.5411 56.8575 60.9863 56.8575Z" fill="url(#paint7_linear_2372_872)"/>
</g>
<defs>
<linearGradient id="paint0_linear_2372_872" x1="4.02331e-07" y1="56.5" x2="108" y2="56.5" gradientUnits="userSpaceOnUse">
<stop stop-color="#FFFA27"/>
<stop offset="0.333928" stop-color="#A9E048"/>
<stop offset="1" stop-color="#44C16F"/>
</linearGradient>
<linearGradient id="paint1_linear_2372_872" x1="36.9922" y1="37.934" x2="54.7109" y2="37.934" gradientUnits="userSpaceOnUse">
<stop stop-color="#FFFA27"/>
<stop offset="0.333928" stop-color="#A9E048"/>
<stop offset="1" stop-color="#44C16F"/>
</linearGradient>
<linearGradient id="paint2_linear_2372_872" x1="32.2031" y1="70.5084" x2="47.5311" y2="70.5084" gradientUnits="userSpaceOnUse">
<stop stop-color="#FFFA27"/>
<stop offset="0.333928" stop-color="#A9E048"/>
<stop offset="1" stop-color="#44C16F"/>
</linearGradient>
<linearGradient id="paint3_linear_2372_872" x1="55.7773" y1="62.7357" x2="81.7578" y2="62.7357" gradientUnits="userSpaceOnUse">
<stop stop-color="#FFFA27"/>
<stop offset="0.333928" stop-color="#A9E048"/>
<stop offset="1" stop-color="#44C16F"/>
</linearGradient>
<linearGradient id="paint4_linear_2372_872" x1="63.9141" y1="37.9344" x2="68.1328" y2="37.9344" gradientUnits="userSpaceOnUse">
<stop stop-color="#FFFA27"/>
<stop offset="0.333928" stop-color="#A9E048"/>
<stop offset="1" stop-color="#44C16F"/>
</linearGradient>
<linearGradient id="paint5_linear_2372_872" x1="51.8906" y1="82.7637" x2="56.1094" y2="82.7637" gradientUnits="userSpaceOnUse">
<stop stop-color="#FFFA27"/>
<stop offset="0.333928" stop-color="#A9E048"/>
<stop offset="1" stop-color="#44C16F"/>
</linearGradient>
<linearGradient id="paint6_linear_2372_872" x1="28.1953" y1="56.5287" x2="32.4141" y2="56.5287" gradientUnits="userSpaceOnUse">
<stop stop-color="#FFFA27"/>
<stop offset="0.333928" stop-color="#A9E048"/>
<stop offset="1" stop-color="#44C16F"/>
</linearGradient>
<linearGradient id="paint7_linear_2372_872" x1="58.877" y1="54.6505" x2="63.0957" y2="54.6505" gradientUnits="userSpaceOnUse">
<stop stop-color="#FFFA27"/>
<stop offset="0.333928" stop-color="#A9E048"/>
<stop offset="1" stop-color="#44C16F"/>
</linearGradient>
<clipPath id="clip0_2372_872">
<rect width="108" height="113" fill="white"/>
</clipPath>
</defs>
</svg>
