<svg width="107" height="113" viewBox="0 0 107 113" fill="none" xmlns="http://www.w3.org/2000/svg">
<g clip-path="url(#clip0_2372_957)">
<path d="M106.082 77.5525L97.7941 68.7998V38.7773L103.205 36.7173C104.447 36.2441 105.275 35.0001 105.276 33.6054C105.277 32.2112 104.451 30.9654 103.209 30.4907L53.7053 11.5575C53.016 11.2938 52.2602 11.2938 51.5708 11.5575L2.0673 30.4907C0.830444 30.9639 0.00503445 32.2019 1.93053e-05 33.5911C-0.00457791 34.9803 0.812264 36.2247 2.04557 36.7073L20.3151 43.8546V65.6703C20.3151 66.3474 20.5116 67.0083 20.8783 67.5635C21.0799 67.869 22.9901 70.6237 27.8807 73.2234C34.0591 76.508 42.1628 78.1735 51.9661 78.1735C61.7624 78.1735 69.907 76.5115 76.1736 73.2333C81.1125 70.6498 83.0862 67.9237 83.2951 67.6216C83.6863 67.0551 83.8972 66.3721 83.8972 65.6707V44.0682L91.5254 41.1638V68.7998L83.2375 77.5525C82.6497 78.1733 82.3193 79.0152 82.3193 79.893C82.3193 80.7709 82.6494 81.613 83.2375 82.2336L91.5254 90.9861V98.3297C91.5254 100.158 92.9288 101.64 94.6599 101.64C96.3909 101.64 97.7943 100.158 97.7943 98.3297V90.9861L106.082 82.2336C107.306 80.9413 107.306 78.845 106.082 77.5525ZM52.6382 18.1906L92.9184 33.5962L51.981 49.1827L12.2476 33.6383L52.6382 18.1906ZM77.628 64.3511C66.9125 74.5338 35.0709 73.3661 26.5841 64.3842V46.3072L50.8772 55.8111C51.2628 55.8755 51.6268 56.2267 53.0291 55.8213L77.6282 46.4555V64.3511H77.628ZM94.6597 84.9339L89.8863 79.893L94.6597 74.852L99.4328 79.893L94.6597 84.9339Z" fill="url(#paint0_linear_2372_957)"/>
</g>
<defs>
<linearGradient id="paint0_linear_2372_957" x1="3.98607e-07" y1="56.4998" x2="107" y2="56.4998" gradientUnits="userSpaceOnUse">
<stop stop-color="#FFFA27"/>
<stop offset="0.333928" stop-color="#A9E048"/>
<stop offset="1" stop-color="#44C16F"/>
</linearGradient>
<clipPath id="clip0_2372_957">
<rect width="107" height="113" fill="white"/>
</clipPath>
</defs>
</svg>
